<?xml version="1.0" encoding="UTF-8" standalone="no"?>
<svg width="20px" height="20px" viewBox="0 0 20 20" version="1.1" xmlns="http://www.w3.org/2000/svg" xmlns:xlink="http://www.w3.org/1999/xlink">
    <!-- Generator: Sketch 47.1 (45422) - http://www.bohemiancoding.com/sketch -->
    <title>Mobile</title>
    <desc>Created with Sketch.</desc>
    <defs></defs>
    <g id="Page-1" stroke="none" stroke-width="1" fill="none" fill-rule="evenodd">
        <g id="Mobile">
            <g id="ic_person_pin_black_24px">
                <path d="M15.8333333,1.66666667 L4.16666667,1.66666667 C3.24166667,1.66666667 2.5,2.41666667 2.5,3.33333333 L2.5,15 C2.5,15.9166667 3.24166667,16.6666667 4.16666667,16.6666667 L7.5,16.6666667 L10,19.1666667 L12.5,16.6666667 L15.8333333,16.6666667 C16.75,16.6666667 17.5,15.9166667 17.5,15 L17.5,3.33333333 C17.5,2.41666667 16.75,1.66666667 15.8333333,1.66666667 Z M10,4.41666667 C11.2416667,4.41666667 12.25,5.425 12.25,6.66666667 C12.25,7.90833333 11.2416667,8.91666667 10,8.91666667 C8.75833333,8.91666667 7.75,7.90833333 7.75,6.66666667 C7.75,5.425 8.75833333,4.41666667 10,4.41666667 Z M15,13.3333333 L5,13.3333333 L5,12.5833333 C5,10.9166667 8.33333333,10 10,10 C11.6666667,10 15,10.9166667 15,12.5833333 L15,13.3333333 Z" id="Shape" fill="#242424" fill-rule="nonzero"></path>
                <polygon id="Shape" points="0 0 20 0 20 20 0 20"></polygon>
            </g>
        </g>
    </g>
</svg>